<svg width="50" height="30" viewBox="0 0 50 30" fill="none" xmlns="http://www.w3.org/2000/svg">
<path d="M33.8478 0.218068C33.0789 0.37934 32.0536 0.863154 31.5837 1.26633C30.8148 1.91142 30.7294 2.35491 30.943 4.1289C31.242 6.50765 31.4129 6.34638 27.312 6.87051C23.3393 7.35433 16.6753 11.2248 13.3433 15.055C8.81527 20.256 8.85799 20.377 13.6424 16.9903C21.0325 11.8296 25.0052 10.2975 31.242 10.2975C33.3352 10.2975 35.1293 10.0959 35.2575 9.89435C35.4283 9.65244 34.9584 8.96704 34.2322 8.32196C31.8828 6.26575 32.908 3.52413 36.6671 1.8711C39.0166 0.822836 39.4865 0.218068 37.9487 0.218068C37.3933 0.218068 36.5817 0.137433 36.1118 0.0567971C35.6419 -0.0641564 34.6167 0.0164792 33.8478 0.218068Z" fill="white"/>
<path d="M12.4036 3.72594C12.4036 4.65325 13.8987 6.06438 15.3084 6.46756C16.8462 6.87074 19.751 6.3466 20.9471 5.41929L22.015 4.57262L20.8616 4.81453C20.1354 4.9758 18.7258 4.73389 17.2307 4.20976C13.4288 2.87927 12.4036 2.79863 12.4036 3.72594Z" fill="white"/>
<path d="M7.91817 10.6603C4.67163 11.4263 2.27945 13.4422 0.741614 16.7079C-0.497196 19.4092 -0.155455 23.4007 1.55325 25.6988C4.37261 29.529 9.62687 31.0208 13.9841 29.2468C15.9918 28.4404 18.7684 26.2633 18.3413 25.8601C18.2131 25.7391 17.1879 26.102 16.0345 26.6261C13.1297 27.9566 10.6094 27.9163 7.66186 26.5052C4.75707 25.1344 3.64641 23.441 3.68913 20.3769C3.68913 16.1838 5.5687 13.0793 8.60165 12.3133C9.79774 11.9907 10.2676 11.6682 10.2676 11.1037C10.2676 10.2571 9.96861 10.2168 7.91817 10.6603Z" fill="white"/>
<path d="M45.296 12.3538C45.296 12.4747 45.6804 13.6439 46.1503 14.9341C47.261 18.0386 47.261 20.5786 46.0649 22.7961C44.228 26.1425 40.8534 27.7552 36.9661 27.0698C35.0865 26.7069 32.3098 24.4491 31.1565 22.3123C30.174 20.498 29.4905 20.3367 29.4905 21.9091C29.4905 23.6831 31.7545 26.6263 34.403 28.2793C42.4766 33.3594 52.1735 26.4247 49.5677 17.4741C49.1833 16.2243 45.3814 11.6281 45.296 12.3538Z" fill="white"/>
</svg>
