<svg width="70" height="50" viewBox="0 0 80 60" fill="none" xmlns="http://www.w3.org/2000/svg">
<path d="M54.1565 0.436179C52.9262 0.758722 51.2859 1.72635 50.534 2.5327C49.3038 3.82287 49.1671 4.70987 49.5088 8.25783C49.9873 13.0153 50.2606 12.6928 43.6992 13.7411C37.3429 14.7087 26.6805 22.4497 21.3494 30.1101C14.1045 40.5121 14.1728 40.754 21.8278 33.9806C33.6521 23.6592 40.0084 20.5951 49.9873 20.5951C53.3363 20.5951 56.2069 20.1919 56.412 19.7887C56.6854 19.3049 55.9335 17.9341 54.7716 16.6439C51.0125 12.5315 52.6528 7.0483 58.6675 3.74224C62.4266 1.64571 63.1784 0.436179 60.7179 0.436179C59.8294 0.436179 58.5308 0.274908 57.7789 0.113637C57.0271 -0.12827 55.3868 0.0330012 54.1565 0.436179Z" fill="white"/>
<path d="M19.8457 7.45189C19.8457 9.30651 22.2379 12.1288 24.4934 12.9351C26.9539 13.7415 31.6016 12.6932 33.5153 10.8386L35.224 9.14524L33.3786 9.62906C32.2167 9.9516 29.9612 9.46778 27.569 8.41952C21.4861 5.75855 19.8457 5.59728 19.8457 7.45189Z" fill="white"/>
<path d="M12.6691 21.3205C7.47461 22.8526 3.64711 26.8844 1.18658 33.4159C-0.795514 38.8185 -0.248728 46.8014 2.4852 51.3976C6.99617 59.058 15.403 62.0415 22.3745 58.4936C25.5869 56.8808 30.0295 52.5265 29.346 51.7202C29.141 51.4783 27.5006 52.204 25.6552 53.2522C21.0075 55.9132 16.975 55.8326 12.259 53.0103C7.61131 50.2687 5.83425 46.882 5.9026 40.7537C5.9026 32.3676 8.90992 26.1587 13.7626 24.6266C15.6764 23.9815 16.4282 23.3364 16.4282 22.2075C16.4282 20.5142 15.9498 20.4335 12.6691 21.3205Z" fill="white"/>
<path d="M72.4736 24.7076C72.4736 24.9495 73.0888 27.2879 73.8406 29.8683C75.6176 36.0772 75.6176 41.1573 73.7039 45.5922C70.7649 52.285 65.3654 55.5104 59.1457 54.1396C56.1384 53.4139 51.6958 48.8983 49.8504 44.6246C48.2784 40.996 47.1848 40.6734 47.1848 43.8182C47.1848 47.3662 50.8073 53.2526 55.0449 56.5587C67.9627 66.7187 83.4777 52.8494 79.3084 34.9483C78.6933 32.4486 72.6103 23.2562 72.4736 24.7076Z" fill="white"/>
</svg>
